<?xml version="1.0" ?><svg id="Layer_1" style="enable-background:new 0 0 64 64;" version="1.1" viewBox="0 0 64 64" xml:space="preserve" xmlns="http://www.w3.org/2000/svg" xmlns:xlink="http://www.w3.org/1999/xlink"><g><path d="M32.01001,47.64456c4.09003,0,7.04999-5.60999,7.04999-9.40002c0-3.88995-3.16998-7.04999-7.04999-7.04999   c-3.89001,0-7.04999,3.16003-7.04999,7.04999C24.96002,42.03458,27.91998,47.64456,32.01001,47.64456z M32.01001,33.19455   c2.78003,0,5.04999,2.27002,5.04999,5.04999c0,3.10004-2.54999,7.40002-5.04999,7.40002   c-2.51001,0-5.04999-4.29999-5.04999-7.40002C26.96002,35.46457,29.22003,33.19455,32.01001,33.19455z"/><path d="M63,48.25455c0-3.44-2.78998-6.22998-6.23999-6.22998h-2.02002l-3.38,6.45001c-0.01996,0.04999-0.07996,0.04999-0.09998,0   l-3.38-6.45001h-2.02002c-3.44,0-6.21997,2.78003-6.22998,6.21997c-0.67999-0.21997-1.40997-0.33997-2.16998-0.33997h-2.63   L32,53.29459l-2.82001-5.39001h-2.63c-0.75,0-1.47998,0.12-2.16998,0.33997c-0.01001-3.43994-2.79999-6.21997-6.23999-6.21997   H16.12l-3.38,6.45001c-0.01996,0.04999-0.07996,0.04999-0.09998,0l-3.38-6.45001H7.23999C3.79004,42.02457,1,44.81454,1,48.25455   v8.07001h18.32001v7.88h25.38v-7.88H63V48.25455z M42.70001,62.20456h-21.38v-7.07001c0-2.93014,2.42547-5.22998,5.22998-5.22998   h1.42004c0.05181,0.10007,3.58103,6.91694,3.35999,6.48999l1.39996-0.02997c0.05138-0.10028,3.5293-6.8879,3.31006-6.46002h1.41998   c2.86833,0,5.23999,2.35307,5.23999,5.22998V62.20456z"/><path d="M51.31628,39.76724c3.34082,0,6.04913-5.06329,6.04913-8.40417l0,0v-0.00006c0-3.34076-2.70831-6.04913-6.04913-6.04913   c-3.34085,0-6.04919,2.70831-6.04919,6.04913v0.00006l0,0C45.26709,34.70395,47.9754,39.76724,51.31628,39.76724z"/><path d="M12.69318,39.76724c3.34088,0,6.04919-5.06329,6.04919-8.40417c0-3.26359-2.65288-6.04919-6.04919-6.04919   c-3.34073,0-6.04919,2.7082-6.04919,6.04913C6.64398,34.70113,9.35147,39.76724,12.69318,39.76724z"/><polygon points="30.94458,10.98489 30.94458,27.96732 32.94458,27.96732 32.94458,10.98489 34.3147,12.35501 35.72876,10.94095    31.94458,7.15677 28.1604,10.94095 29.57446,12.35501  "/><polygon points="50.31665,3.62357 50.31665,22.55618 52.31665,22.55618 52.31665,3.62357 53.68677,4.99368 55.10083,3.57962    51.31665,-0.20456 47.53247,3.57962 48.94653,4.99368  "/><polygon points="11.6936,3.62314 11.6936,22.55618 13.6936,22.55618 13.6936,3.62357 15.06372,4.99368 16.47778,3.57962    12.6936,-0.20456 8.90845,3.57962 10.32249,4.99368  "/></g></svg>